NotoSansSoraSompeng-Regular.ufo
<glyph name="u110D0" format="2">
  <advance width="541"/>
  <unicode hex="110D0"/>
  <outline>
    <contour>
      <point x="165" y="0" type="line"/>
      <point x="235" y="0" type="line"/>
      <point x="235" y="584" type="line" smooth="yes"/>
      <point x="235" y="672"/>
      <point x="292" y="752"/>
      <point x="367" y="752" type="curve" smooth="yes"/>
      <point x="421" y="752"/>
      <point x="447" y="721"/>
      <point x="453" y="669" type="curve"/>
      <point x="461" y="672" type="line"/>
      <point x="449" y="689"/>
      <point x="429" y="695"/>
      <point x="407" y="695" type="curve" smooth="yes"/>
      <point x="343" y="695"/>
      <point x="299" y="644"/>
      <point x="299" y="575" type="curve" smooth="yes"/>
      <point x="299" y="506"/>
      <point x="343" y="455"/>
      <point x="407" y="455" type="curve" smooth="yes"/>
      <point x="479" y="455"/>
      <point x="521" y="515"/>
      <point x="521" y="597" type="curve" smooth="yes"/>
      <point x="521" y="728"/>
      <point x="467" y="814"/>
      <point x="365" y="814" type="curve" smooth="yes"/>
      <point x="312" y="814"/>
      <point x="267" y="784"/>
      <point x="233" y="735" type="curve"/>
      <point x="232" y="736" type="line"/>
      <point x="234" y="742"/>
      <point x="235" y="754"/>
      <point x="235" y="765" type="curve" smooth="yes"/>
      <point x="235" y="800" type="line"/>
      <point x="165" y="800" type="line"/>
      <point x="0" y="348" type="line"/>
      <point x="67" y="348" type="line"/>
      <point x="138" y="546" type="line" smooth="yes"/>
      <point x="155" y="593"/>
      <point x="164" y="627"/>
      <point x="172" y="658" type="curve"/>
      <point x="175" y="657" type="line"/>
      <point x="170" y="630"/>
      <point x="165" y="591"/>
      <point x="165" y="532" type="curve" smooth="yes"/>
    </contour>
    <contour>
      <point x="407" y="513" type="curve" smooth="yes"/>
      <point x="377" y="513"/>
      <point x="357" y="539"/>
      <point x="357" y="575" type="curve" smooth="yes"/>
      <point x="357" y="611"/>
      <point x="377" y="637"/>
      <point x="407" y="637" type="curve" smooth="yes"/>
      <point x="436" y="637"/>
      <point x="456" y="611"/>
      <point x="456" y="575" type="curve" smooth="yes"/>
      <point x="456" y="539"/>
      <point x="436" y="513"/>
    </contour>
  </outline>
</glyph>
<glyph name="u110D1" format="2">
  <advance width="489"/>
  <unicode hex="110D1"/>
  <outline>
    <contour>
      <point x="241" y="-14" type="curve" smooth="yes"/>
      <point x="370" y="-14"/>
      <point x="449" y="105"/>
      <point x="449" y="249" type="curve" smooth="yes"/>
      <point x="449" y="361"/>
      <point x="392" y="449"/>
      <point x="315" y="486" type="curve"/>
      <point x="361" y="521"/>
      <point x="384" y="576"/>
      <point x="384" y="644" type="curve" smooth="yes"/>
      <point x="384" y="747"/>
      <point x="311" y="814"/>
      <point x="227" y="814" type="curve" smooth="yes"/>
      <point x="169" y="814"/>
      <point x="133" y="769"/>
      <point x="133" y="720" type="curve" smooth="yes"/>
      <point x="133" y="668"/>
      <point x="167" y="626"/>
      <point x="224" y="626" type="curve" smooth="yes"/>
      <point x="270" y="626"/>
      <point x="307" y="664"/>
      <point x="310" y="705" type="curve"/>
      <point x="307" y="702" type="line"/>
      <point x="313" y="690"/>
      <point x="318" y="669"/>
      <point x="318" y="638" type="curve" smooth="yes"/>
      <point x="318" y="554"/>
      <point x="276" y="519"/>
      <point x="238" y="504" type="curve"/>
      <point x="238" y="449" type="line"/>
      <point x="313" y="438"/>
      <point x="375" y="374"/>
      <point x="375" y="250" type="curve" smooth="yes"/>
      <point x="375" y="110"/>
      <point x="313" y="52"/>
      <point x="241" y="52" type="curve" smooth="yes"/>
      <point x="179" y="52"/>
      <point x="146" y="86"/>
      <point x="122" y="136" type="curve"/>
      <point x="118" y="132" type="line"/>
      <point x="139" y="117"/>
      <point x="154" y="112"/>
      <point x="174" y="112" type="curve" smooth="yes"/>
      <point x="249" y="112"/>
      <point x="300" y="175"/>
      <point x="300" y="262" type="curve" smooth="yes"/>
      <point x="300" y="349"/>
      <point x="254" y="416"/>
      <point x="174" y="416" type="curve" smooth="yes"/>
      <point x="102" y="416"/>
      <point x="40" y="356"/>
      <point x="40" y="245" type="curve" smooth="yes"/>
      <point x="40" y="77"/>
      <point x="119" y="-14"/>
    </contour>
    <contour>
      <point x="175" y="174" type="curve" smooth="yes"/>
      <point x="136" y="174"/>
      <point x="110" y="212"/>
      <point x="110" y="265" type="curve" smooth="yes"/>
      <point x="110" y="317"/>
      <point x="136" y="354"/>
      <point x="175" y="354" type="curve" smooth="yes"/>
      <point x="212" y="354"/>
      <point x="232" y="317"/>
      <point x="232" y="265" type="curve" smooth="yes"/>
      <point x="232" y="212"/>
      <point x="212" y="174"/>
    </contour>
    <contour>
      <point x="223" y="678" type="curve" smooth="yes"/>
      <point x="200" y="678"/>
      <point x="186" y="695"/>
      <point x="186" y="720" type="curve" smooth="yes"/>
      <point x="186" y="745"/>
      <point x="200" y="762"/>
      <point x="223" y="762" type="curve" smooth="yes"/>
      <point x="248" y="762"/>
      <point x="262" y="745"/>
      <point x="262" y="720" type="curve" smooth="yes"/>
      <point x="262" y="695"/>
      <point x="247" y="678"/>
    </contour>
  </outline>
</glyph>
<glyph name="u110D2" format="2">
  <advance width="410"/>
  <unicode hex="110D2"/>
  <outline>
    <contour>
      <point x="260" y="0" type="line"/>
      <point x="330" y="0" type="line"/>
      <point x="330" y="800" type="line"/>
      <point x="281" y="800" type="line"/>
      <point x="247" y="793"/>
      <point x="213" y="788"/>
      <point x="177" y="788" type="curve" smooth="yes"/>
      <point x="148" y="788"/>
      <point x="118" y="791"/>
      <point x="87" y="800" type="curve"/>
      <point x="40" y="800" type="line"/>
      <point x="40" y="630" type="line"/>
      <point x="110" y="630" type="line"/>
      <point x="110" y="735" type="line"/>
      <point x="133" y="731"/>
      <point x="158" y="728"/>
      <point x="182" y="728" type="curve" smooth="yes"/>
      <point x="207" y="728"/>
      <point x="236" y="730"/>
      <point x="260" y="734" type="curve"/>
      <point x="260" y="433" type="line"/>
      <point x="43" y="433" type="line"/>
      <point x="43" y="373" type="line"/>
      <point x="149" y="286"/>
      <point x="224" y="149"/>
      <point x="260" y="4" type="curve"/>
    </contour>
    <contour>
      <point x="266" y="151" type="line"/>
      <point x="263" y="164"/>
      <point x="254" y="192"/>
      <point x="244" y="214" type="curve" smooth="yes"/>
      <point x="228" y="250"/>
      <point x="182" y="323"/>
      <point x="133" y="373" type="curve"/>
      <point x="260" y="373" type="line"/>
      <point x="260" y="256" type="line" smooth="yes"/>
      <point x="260" y="217"/>
      <point x="266" y="164"/>
      <point x="269" y="152" type="curve"/>
    </contour>
  </outline>
</glyph>
<glyph name="u110D3" format="2">
  <advance width="500"/>
  <unicode hex="110D3"/>
  <outline>
    <contour>
      <point x="236" y="0" type="line"/>
      <point x="490" y="0" type="line"/>
      <point x="490" y="60" type="line"/>
      <point x="306" y="60" type="line"/>
      <point x="306" y="527" type="line"/>
      <point x="237" y="527" type="line"/>
      <point x="234" y="499"/>
      <point x="214" y="472"/>
      <point x="187" y="472" type="curve" smooth="yes"/>
      <point x="143" y="472"/>
      <point x="114" y="524"/>
      <point x="114" y="613" type="curve" smooth="yes"/>
      <point x="114" y="693"/>
      <point x="140" y="752"/>
      <point x="195" y="752" type="curve" smooth="yes"/>
      <point x="245" y="752"/>
      <point x="260" y="721"/>
      <point x="262" y="673" type="curve"/>
      <point x="331" y="673" type="line"/>
      <point x="329" y="771"/>
      <point x="283" y="814"/>
      <point x="198" y="814" type="curve" smooth="yes"/>
      <point x="105" y="814"/>
      <point x="40" y="745"/>
      <point x="40" y="606" type="curve" smooth="yes"/>
      <point x="40" y="484"/>
      <point x="97" y="410"/>
      <point x="176" y="410" type="curve" smooth="yes"/>
      <point x="204" y="410"/>
      <point x="234" y="418"/>
      <point x="252" y="448" type="curve"/>
      <point x="236" y="450" type="line"/>
    </contour>
  </outline>
</glyph>
<glyph name="u110D4" format="2">
  <advance width="596"/>
  <unicode hex="110D4"/>
  <outline>
    <contour>
      <point x="424" y="-14" type="curve" smooth="yes"/>
      <point x="526" y="-14"/>
      <point x="556" y="80"/>
      <point x="556" y="177" type="curve" smooth="yes"/>
      <point x="556" y="336"/>
      <point x="482" y="452"/>
      <point x="370" y="452" type="curve" smooth="yes"/>
      <point x="330" y="452"/>
      <point x="284" y="436"/>
      <point x="247" y="392" type="curve"/>
      <point x="247" y="654" type="line" smooth="yes"/>
      <point x="247" y="729"/>
      <point x="224" y="814"/>
      <point x="128" y="814" type="curve" smooth="yes"/>
      <point x="64" y="814"/>
      <point x="20" y="763"/>
      <point x="20" y="694" type="curve" smooth="yes"/>
      <point x="20" y="625"/>
      <point x="64" y="574"/>
      <point x="124" y="574" type="curve" smooth="yes"/>
      <point x="163" y="574"/>
      <point x="183" y="590"/>
      <point x="192" y="605" type="curve"/>
      <point x="185" y="614" type="line"/>
      <point x="182" y="599"/>
      <point x="177" y="534"/>
      <point x="177" y="480" type="curve" smooth="yes"/>
      <point x="177" y="0" type="line"/>
      <point x="247" y="0" type="line"/>
      <point x="247" y="299" type="line"/>
      <point x="271" y="350"/>
      <point x="309" y="386"/>
      <point x="362" y="386" type="curve" smooth="yes"/>
      <point x="420" y="386"/>
      <point x="463" y="346"/>
      <point x="481" y="254" type="curve"/>
      <point x="487" y="262" type="line"/>
      <point x="470" y="284"/>
      <point x="448" y="290"/>
      <point x="424" y="290" type="curve" smooth="yes"/>
      <point x="352" y="290"/>
      <point x="296" y="223"/>
      <point x="296" y="136" type="curve" smooth="yes"/>
      <point x="296" y="49"/>
      <point x="352" y="-14"/>
    </contour>
    <contour>
      <point x="425" y="48" type="curve" smooth="yes"/>
      <point x="386" y="48"/>
      <point x="360" y="86"/>
      <point x="360" y="139" type="curve" smooth="yes"/>
      <point x="360" y="191"/>
      <point x="386" y="228"/>
      <point x="425" y="228" type="curve" smooth="yes"/>
      <point x="462" y="228"/>
      <point x="482" y="191"/>
      <point x="482" y="139" type="curve" smooth="yes"/>
      <point x="482" y="86"/>
      <point x="462" y="48"/>
    </contour>
    <contour>
      <point x="128" y="632" type="curve" smooth="yes"/>
      <point x="98" y="632"/>
      <point x="78" y="658"/>
      <point x="78" y="694" type="curve" smooth="yes"/>
      <point x="78" y="730"/>
      <point x="98" y="756"/>
      <point x="128" y="756" type="curve" smooth="yes"/>
      <point x="157" y="756"/>
      <point x="177" y="730"/>
      <point x="177" y="694" type="curve" smooth="yes"/>
      <point x="177" y="658"/>
      <point x="157" y="632"/>
    </contour>
  </outline>
</glyph>
<glyph name="u110D5" format="2">
  <advance width="503"/>
  <unicode hex="110D5"/>
  <outline>
    <contour>
      <point x="246" y="-14" type="curve" smooth="yes"/>
      <point x="372" y="-14"/>
      <point x="463" y="89"/>
      <point x="463" y="246" type="curve" smooth="yes"/>
      <point x="463" y="375"/>
      <point x="413" y="438"/>
      <point x="342" y="464" type="curve"/>
      <point x="342" y="800" type="line"/>
      <point x="272" y="800" type="line"/>
      <point x="98" y="705" type="line"/>
      <point x="98" y="635" type="line"/>
      <point x="272" y="730" type="line"/>
      <point x="272" y="410" type="line"/>
      <point x="330" y="410"/>
      <point x="389" y="364"/>
      <point x="389" y="246" type="curve" smooth="yes"/>
      <point x="389" y="109"/>
      <point x="310" y="48"/>
      <point x="248" y="48" type="curve"/>
      <point x="267" y="55"/>
      <point x="300" y="107"/>
      <point x="301" y="162" type="curve" smooth="yes"/>
      <point x="301" y="248"/>
      <point x="254" y="315"/>
      <point x="174" y="315" type="curve" smooth="yes"/>
      <point x="93" y="315"/>
      <point x="40" y="244"/>
      <point x="40" y="161" type="curve" smooth="yes"/>
      <point x="40" y="54"/>
      <point x="121" y="-14"/>
    </contour>
    <contour>
      <point x="175" y="73" type="curve" smooth="yes"/>
      <point x="136" y="73"/>
      <point x="110" y="111"/>
      <point x="110" y="164" type="curve" smooth="yes"/>
      <point x="110" y="216"/>
      <point x="136" y="253"/>
      <point x="175" y="253" type="curve" smooth="yes"/>
      <point x="212" y="253"/>
      <point x="232" y="216"/>
      <point x="232" y="164" type="curve" smooth="yes"/>
      <point x="232" y="111"/>
      <point x="212" y="73"/>
    </contour>
  </outline>
</glyph>
<glyph name="u110D6" format="2">
  <advance width="454"/>
  <unicode hex="110D6"/>
  <outline>
    <contour>
      <point x="269" y="-14" type="curve" smooth="yes"/>
      <point x="347" y="-14"/>
      <point x="401" y="52"/>
      <point x="401" y="138" type="curve" smooth="yes"/>
      <point x="401" y="207"/>
      <point x="373" y="269"/>
      <point x="287" y="357" type="curve"/>
      <point x="318" y="385"/>
      <point x="354" y="401"/>
      <point x="385" y="406" type="curve"/>
      <point x="385" y="460" type="line"/>
      <point x="288" y="483"/>
      <point x="231" y="548"/>
      <point x="231" y="642" type="curve" smooth="yes"/>
      <point x="231" y="670"/>
      <point x="235" y="693"/>
      <point x="242" y="703" type="curve"/>
      <point x="236" y="706" type="line"/>
      <point x="238" y="665"/>
      <point x="273" y="626"/>
      <point x="323" y="626" type="curve" smooth="yes"/>
      <point x="374" y="626"/>
      <point x="414" y="668"/>
      <point x="414" y="720" type="curve" smooth="yes"/>
      <point x="414" y="779"/>
      <point x="374" y="814"/>
      <point x="313" y="814" type="curve" smooth="yes"/>
      <point x="233" y="814"/>
      <point x="161" y="741"/>
      <point x="161" y="631" type="curve" smooth="yes"/>
      <point x="161" y="541"/>
      <point x="225" y="451"/>
      <point x="317" y="426" type="curve"/>
      <point x="315" y="441" type="line"/>
      <point x="285" y="431"/>
      <point x="264" y="416"/>
      <point x="246" y="400" type="curve"/>
      <point x="57" y="593" type="line"/>
      <point x="20" y="532" type="line"/>
      <point x="201" y="350" type="line"/>
      <point x="160" y="295"/>
      <point x="133" y="225"/>
      <point x="133" y="153" type="curve" smooth="yes"/>
      <point x="133" y="35"/>
      <point x="191" y="-14"/>
    </contour>
    <contour>
      <point x="324" y="678" type="curve" smooth="yes"/>
      <point x="300" y="678"/>
      <point x="285" y="695"/>
      <point x="285" y="720" type="curve" smooth="yes"/>
      <point x="285" y="745"/>
      <point x="299" y="762"/>
      <point x="324" y="762" type="curve" smooth="yes"/>
      <point x="347" y="762"/>
      <point x="361" y="745"/>
      <point x="361" y="720" type="curve" smooth="yes"/>
      <point x="361" y="695"/>
      <point x="347" y="678"/>
    </contour>
    <contour>
      <point x="269" y="52" type="curve" smooth="yes"/>
      <point x="237" y="52"/>
      <point x="207" y="85"/>
      <point x="207" y="166" type="curve" smooth="yes"/>
      <point x="207" y="222"/>
      <point x="221" y="268"/>
      <point x="244" y="305" type="curve"/>
      <point x="301" y="244"/>
      <point x="327" y="193"/>
      <point x="327" y="145" type="curve" smooth="yes"/>
      <point x="327" y="85"/>
      <point x="304" y="52"/>
    </contour>
  </outline>
</glyph>
<glyph name="u110D7" format="2">
  <advance width="540"/>
  <unicode hex="110D7"/>
  <outline>
    <contour>
      <point x="208" y="0" type="line"/>
      <point x="278" y="0" type="line"/>
      <point x="278" y="599" type="line"/>
      <point x="300" y="639"/>
      <point x="327" y="681"/>
      <point x="353" y="709" type="curve"/>
      <point x="338" y="711" type="line"/>
      <point x="343" y="663"/>
      <point x="381" y="626"/>
      <point x="429" y="626" type="curve" smooth="yes"/>
      <point x="480" y="626"/>
      <point x="520" y="668"/>
      <point x="520" y="720" type="curve" smooth="yes"/>
      <point x="520" y="772"/>
      <point x="480" y="814"/>
      <point x="425" y="814" type="curve" smooth="yes"/>
      <point x="357" y="814"/>
      <point x="306" y="748"/>
      <point x="274" y="680" type="curve"/>
      <point x="272" y="681" type="line"/>
      <point x="276" y="700"/>
      <point x="278" y="719"/>
      <point x="278" y="748" type="curve" smooth="yes"/>
      <point x="278" y="800" type="line"/>
      <point x="208" y="800" type="line"/>
      <point x="61" y="600" type="line"/>
      <point x="138" y="600" type="line"/>
      <point x="217" y="725" type="line"/>
      <point x="219" y="724" type="line"/>
      <point x="211" y="709"/>
      <point x="208" y="694"/>
      <point x="208" y="658" type="curve" smooth="yes"/>
      <point x="208" y="594" type="line"/>
      <point x="152" y="502"/>
      <point x="97" y="421"/>
      <point x="33" y="421" type="curve" smooth="yes"/>
      <point x="20" y="421" type="line"/>
      <point x="20" y="361" type="line"/>
      <point x="33" y="361" type="line" smooth="yes"/>
      <point x="111" y="361"/>
      <point x="186" y="231"/>
      <point x="208" y="132" type="curve"/>
    </contour>
    <contour>
      <point x="215" y="264" type="line"/>
      <point x="198" y="320"/>
      <point x="149" y="382"/>
      <point x="91" y="399" type="curve"/>
      <point x="86" y="382" type="line"/>
      <point x="152" y="414"/>
      <point x="187" y="457"/>
      <point x="217" y="516" type="curve"/>
      <point x="219" y="515" type="line"/>
      <point x="213" y="500"/>
      <point x="210" y="478"/>
      <point x="210" y="450" type="curve" smooth="yes"/>
      <point x="210" y="346" type="line" smooth="yes"/>
      <point x="210" y="316"/>
      <point x="212" y="284"/>
      <point x="217" y="265" type="curve"/>
    </contour>
    <contour>
      <point x="429" y="678" type="curve" smooth="yes"/>
      <point x="405" y="678"/>
      <point x="391" y="695"/>
      <point x="391" y="720" type="curve" smooth="yes"/>
      <point x="391" y="745"/>
      <point x="405" y="762"/>
      <point x="429" y="762" type="curve" smooth="yes"/>
      <point x="453" y="762"/>
      <point x="467" y="745"/>
      <point x="467" y="720" type="curve" smooth="yes"/>
      <point x="467" y="695"/>
      <point x="452" y="678"/>
    </contour>
  </outline>
</glyph>
<glyph name="u110D8" format="2">
  <advance width="578"/>
  <unicode hex="110D8"/>
  <outline>
    <contour>
      <point x="223" y="-14" type="curve" smooth="yes"/>
      <point x="348" y="-14"/>
      <point x="405" y="83"/>
      <point x="405" y="249" type="curve" smooth="yes"/>
      <point x="405" y="575" type="line"/>
      <point x="414" y="574"/>
      <point x="423" y="574"/>
      <point x="432" y="574" type="curve" smooth="yes"/>
      <point x="510" y="574"/>
      <point x="558" y="623"/>
      <point x="558" y="693" type="curve" smooth="yes"/>
      <point x="558" y="765"/>
      <point x="510" y="814"/>
      <point x="450" y="814" type="curve" smooth="yes"/>
      <point x="388" y="814"/>
      <point x="335" y="778"/>
      <point x="335" y="666" type="curve" smooth="yes"/>
      <point x="335" y="651" type="line"/>
      <point x="245" y="679"/>
      <point x="151" y="731"/>
      <point x="113" y="758" type="curve"/>
      <point x="113" y="686" type="line"/>
      <point x="144" y="668"/>
      <point x="238" y="614"/>
      <point x="335" y="588" type="curve"/>
      <point x="335" y="250" type="line" smooth="yes"/>
      <point x="335" y="110"/>
      <point x="302" y="52"/>
      <point x="225" y="52" type="curve" smooth="yes"/>
      <point x="162" y="52"/>
      <point x="114" y="106"/>
      <point x="100" y="217" type="curve"/>
      <point x="97" y="210" type="line"/>
      <point x="114" y="191"/>
      <point x="141" y="172"/>
      <point x="180" y="172" type="curve" smooth="yes"/>
      <point x="247" y="172"/>
      <point x="300" y="235"/>
      <point x="300" y="322" type="curve" smooth="yes"/>
      <point x="300" y="409"/>
      <point x="254" y="476"/>
      <point x="174" y="476" type="curve" smooth="yes"/>
      <point x="82" y="476"/>
      <point x="40" y="383"/>
      <point x="40" y="281" type="curve" smooth="yes"/>
      <point x="40" y="59"/>
      <point x="126" y="-14"/>
    </contour>
    <contour>
      <point x="175" y="234" type="curve" smooth="yes"/>
      <point x="136" y="234"/>
      <point x="110" y="272"/>
      <point x="110" y="325" type="curve" smooth="yes"/>
      <point x="110" y="377"/>
      <point x="136" y="414"/>
      <point x="175" y="414" type="curve" smooth="yes"/>
      <point x="212" y="414"/>
      <point x="232" y="377"/>
      <point x="232" y="325" type="curve" smooth="yes"/>
      <point x="232" y="272"/>
      <point x="212" y="234"/>
    </contour>
    <contour>
      <point x="434" y="634" type="curve" smooth="yes"/>
      <point x="424" y="634"/>
      <point x="415" y="634"/>
      <point x="405" y="636" type="curve"/>
      <point x="405" y="667" type="line" smooth="yes"/>
      <point x="405" y="740"/>
      <point x="426" y="756"/>
      <point x="450" y="756" type="curve" smooth="yes"/>
      <point x="479" y="756"/>
      <point x="499" y="732"/>
      <point x="499" y="693" type="curve" smooth="yes"/>
      <point x="499" y="656"/>
      <point x="479" y="634"/>
    </contour>
  </outline>
</glyph>
<glyph name="u110D9" format="2">
  <advance width="485"/>
  <unicode hex="110D9"/>
  <outline>
    <contour>
      <point x="223" y="-14" type="curve" smooth="yes"/>
      <point x="348" y="-14"/>
      <point x="405" y="83"/>
      <point x="405" y="249" type="curve" smooth="yes"/>
      <point x="405" y="800" type="line"/>
      <point x="80" y="800" type="line"/>
      <point x="80" y="630" type="line"/>
      <point x="150" y="630" type="line"/>
      <point x="150" y="740" type="line"/>
      <point x="335" y="740" type="line"/>
      <point x="335" y="250" type="line" smooth="yes"/>
      <point x="335" y="110"/>
      <point x="302" y="52"/>
      <point x="225" y="52" type="curve" smooth="yes"/>
      <point x="162" y="52"/>
      <point x="114" y="106"/>
      <point x="100" y="217" type="curve"/>
      <point x="97" y="210" type="line"/>
      <point x="114" y="191"/>
      <point x="141" y="172"/>
      <point x="180" y="172" type="curve" smooth="yes"/>
      <point x="249" y="172"/>
      <point x="300" y="235"/>
      <point x="300" y="322" type="curve" smooth="yes"/>
      <point x="300" y="409"/>
      <point x="254" y="476"/>
      <point x="174" y="476" type="curve" smooth="yes"/>
      <point x="82" y="476"/>
      <point x="40" y="384"/>
      <point x="40" y="289" type="curve" smooth="yes"/>
      <point x="40" y="53"/>
      <point x="126" y="-14"/>
    </contour>
    <contour>
      <point x="175" y="234" type="curve" smooth="yes"/>
      <point x="136" y="234"/>
      <point x="110" y="272"/>
      <point x="110" y="325" type="curve" smooth="yes"/>
      <point x="110" y="377"/>
      <point x="136" y="414"/>
      <point x="175" y="414" type="curve" smooth="yes"/>
      <point x="212" y="414"/>
      <point x="232" y="377"/>
      <point x="232" y="325" type="curve" smooth="yes"/>
      <point x="232" y="272"/>
      <point x="212" y="234"/>
    </contour>
  </outline>
</glyph>
<glyph name="u110DA" format="2">
  <advance width="476"/>
  <unicode hex="110DA"/>
  <outline>
    <contour>
      <point x="228" y="-14" type="curve" smooth="yes"/>
      <point x="324" y="-14"/>
      <point x="396" y="48"/>
      <point x="396" y="165" type="curve" smooth="yes"/>
      <point x="396" y="244"/>
      <point x="355" y="298"/>
      <point x="283" y="298" type="curve" smooth="yes"/>
      <point x="219" y="298"/>
      <point x="175" y="247"/>
      <point x="175" y="178" type="curve" smooth="yes"/>
      <point x="175" y="99"/>
      <point x="222" y="65"/>
      <point x="284" y="62" type="curve"/>
      <point x="277" y="56"/>
      <point x="263" y="52"/>
      <point x="234" y="52" type="curve" smooth="yes"/>
      <point x="177" y="52"/>
      <point x="114" y="93"/>
      <point x="114" y="233" type="curve" smooth="yes"/>
      <point x="114" y="314"/>
      <point x="140" y="410"/>
      <point x="231" y="410" type="curve" smooth="yes"/>
      <point x="272" y="410"/>
      <point x="303" y="394"/>
      <point x="321" y="357" type="curve"/>
      <point x="391" y="357" type="line"/>
      <point x="391" y="800" type="line"/>
      <point x="76" y="800" type="line"/>
      <point x="76" y="630" type="line"/>
      <point x="146" y="630" type="line"/>
      <point x="146" y="740" type="line"/>
      <point x="321" y="740" type="line"/>
      <point x="321" y="423" type="line"/>
      <point x="335" y="432" type="line"/>
      <point x="314" y="458"/>
      <point x="272" y="476"/>
      <point x="229" y="476" type="curve" smooth="yes"/>
      <point x="105" y="476"/>
      <point x="40" y="357"/>
      <point x="40" y="232" type="curve" smooth="yes"/>
      <point x="40" y="85"/>
      <point x="117" y="-14"/>
    </contour>
    <contour>
      <point x="286" y="116" type="curve" smooth="yes"/>
      <point x="256" y="116"/>
      <point x="233" y="136"/>
      <point x="233" y="178" type="curve" smooth="yes"/>
      <point x="233" y="214"/>
      <point x="253" y="240"/>
      <point x="283" y="240" type="curve" smooth="yes"/>
      <point x="312" y="240"/>
      <point x="332" y="214"/>
      <point x="332" y="178" type="curve" smooth="yes"/>
      <point x="332" y="136"/>
      <point x="314" y="116"/>
    </contour>
  </outline>
</glyph>
<glyph name="u110DB" format="2">
  <advance width="507"/>
  <unicode hex="110DB"/>
  <outline>
    <contour>
      <point x="260" y="-14" type="curve" smooth="yes"/>
      <point x="370" y="-14"/>
      <point x="467" y="73"/>
      <point x="467" y="191" type="curve" smooth="yes"/>
      <point x="467" y="234"/>
      <point x="456" y="333"/>
      <point x="363" y="373" type="curve"/>
      <point x="363" y="616" type="line"/>
      <point x="243" y="521" type="line"/>
      <point x="267" y="519" type="line"/>
      <point x="267" y="531"/>
      <point x="267" y="544"/>
      <point x="267" y="556" type="curve" smooth="yes"/>
      <point x="267" y="644" type="line" smooth="yes"/>
      <point x="267" y="732"/>
      <point x="244" y="814"/>
      <point x="148" y="814" type="curve" smooth="yes"/>
      <point x="84" y="814"/>
      <point x="40" y="763"/>
      <point x="40" y="694" type="curve" smooth="yes"/>
      <point x="40" y="625"/>
      <point x="84" y="574"/>
      <point x="148" y="574" type="curve" smooth="yes"/>
      <point x="166" y="574"/>
      <point x="182" y="578"/>
      <point x="197" y="585" type="curve"/>
      <point x="197" y="408" type="line"/>
      <point x="315" y="516" type="line"/>
      <point x="293" y="517" type="line"/>
      <point x="293" y="504"/>
      <point x="293" y="491"/>
      <point x="293" y="478" type="curve" smooth="yes"/>
      <point x="293" y="331" type="line"/>
      <point x="378" y="312"/>
      <point x="393" y="248"/>
      <point x="393" y="196" type="curve" smooth="yes"/>
      <point x="393" y="102"/>
      <point x="316" y="52"/>
      <point x="247" y="52" type="curve" smooth="yes"/>
      <point x="224" y="52"/>
      <point x="205" y="54"/>
      <point x="187" y="62" type="curve"/>
      <point x="187" y="63" type="line"/>
      <point x="248" y="63"/>
      <point x="286" y="114"/>
      <point x="286" y="178" type="curve" smooth="yes"/>
      <point x="286" y="247"/>
      <point x="242" y="298"/>
      <point x="178" y="298" type="curve" smooth="yes"/>
      <point x="114" y="298"/>
      <point x="60" y="248"/>
      <point x="60" y="165" type="curve" smooth="yes"/>
      <point x="60" y="54"/>
      <point x="137" y="-14"/>
    </contour>
    <contour>
      <point x="178" y="116" type="curve" smooth="yes"/>
      <point x="149" y="116"/>
      <point x="129" y="142"/>
      <point x="129" y="178" type="curve" smooth="yes"/>
      <point x="129" y="214"/>
      <point x="149" y="240"/>
      <point x="178" y="240" type="curve" smooth="yes"/>
      <point x="208" y="240"/>
      <point x="228" y="214"/>
      <point x="228" y="178" type="curve" smooth="yes"/>
      <point x="228" y="142"/>
      <point x="208" y="116"/>
    </contour>
    <contour>
      <point x="148" y="632" type="curve" smooth="yes"/>
      <point x="118" y="632"/>
      <point x="98" y="658"/>
      <point x="98" y="694" type="curve" smooth="yes"/>
      <point x="98" y="730"/>
      <point x="118" y="756"/>
      <point x="148" y="756" type="curve" smooth="yes"/>
      <point x="177" y="756"/>
      <point x="197" y="730"/>
      <point x="197" y="694" type="curve" smooth="yes"/>
      <point x="197" y="658"/>
      <point x="177" y="632"/>
    </contour>
  </outline>
</glyph>
<glyph name="u110DC" format="2">
  <advance width="485"/>
  <unicode hex="110DC"/>
  <outline>
    <contour>
      <point x="223" y="-14" type="curve" smooth="yes"/>
      <point x="348" y="-14"/>
      <point x="405" y="83"/>
      <point x="405" y="249" type="curve" smooth="yes"/>
      <point x="405" y="800" type="line"/>
      <point x="335" y="800" type="line"/>
      <point x="335" y="788" type="line" smooth="yes"/>
      <point x="335" y="720"/>
      <point x="284" y="678"/>
      <point x="221" y="678" type="curve" smooth="yes"/>
      <point x="164" y="678"/>
      <point x="125" y="716"/>
      <point x="125" y="776" type="curve" smooth="yes"/>
      <point x="125" y="800" type="line"/>
      <point x="55" y="800" type="line"/>
      <point x="55" y="776" type="line" smooth="yes"/>
      <point x="55" y="657"/>
      <point x="147" y="612"/>
      <point x="224" y="612" type="curve" smooth="yes"/>
      <point x="271" y="612"/>
      <point x="312" y="628"/>
      <point x="335" y="657" type="curve"/>
      <point x="335" y="250" type="line" smooth="yes"/>
      <point x="335" y="110"/>
      <point x="302" y="52"/>
      <point x="225" y="52" type="curve" smooth="yes"/>
      <point x="162" y="52"/>
      <point x="114" y="106"/>
      <point x="100" y="217" type="curve"/>
      <point x="97" y="210" type="line"/>
      <point x="114" y="191"/>
      <point x="141" y="172"/>
      <point x="181" y="172" type="curve" smooth="yes"/>
      <point x="249" y="172"/>
      <point x="300" y="235"/>
      <point x="300" y="322" type="curve" smooth="yes"/>
      <point x="300" y="409"/>
      <point x="254" y="476"/>
      <point x="174" y="476" type="curve" smooth="yes"/>
      <point x="82" y="476"/>
      <point x="40" y="385"/>
      <point x="40" y="290" type="curve" smooth="yes"/>
      <point x="40" y="59"/>
      <point x="126" y="-14"/>
    </contour>
    <contour>
      <point x="175" y="234" type="curve" smooth="yes"/>
      <point x="136" y="234"/>
      <point x="110" y="272"/>
      <point x="110" y="325" type="curve" smooth="yes"/>
      <point x="110" y="377"/>
      <point x="136" y="414"/>
      <point x="175" y="414" type="curve" smooth="yes"/>
      <point x="212" y="414"/>
      <point x="232" y="377"/>
      <point x="232" y="325" type="curve" smooth="yes"/>
      <point x="232" y="272"/>
      <point x="212" y="234"/>
    </contour>
  </outline>
</glyph>
<glyph name="u110DD" format="2">
  <advance width="502"/>
  <unicode hex="110DD"/>
  <outline>
    <contour>
      <point x="330" y="-14" type="curve" smooth="yes"/>
      <point x="422" y="-14"/>
      <point x="462" y="82"/>
      <point x="462" y="182" type="curve" smooth="yes"/>
      <point x="462" y="336"/>
      <point x="388" y="452"/>
      <point x="276" y="452" type="curve" smooth="yes"/>
      <point x="236" y="452"/>
      <point x="190" y="436"/>
      <point x="153" y="392" type="curve"/>
      <point x="153" y="575" type="line"/>
      <point x="162" y="574"/>
      <point x="171" y="574"/>
      <point x="180" y="574" type="curve" smooth="yes"/>
      <point x="258" y="574"/>
      <point x="306" y="623"/>
      <point x="306" y="693" type="curve" smooth="yes"/>
      <point x="306" y="765"/>
      <point x="258" y="814"/>
      <point x="198" y="814" type="curve" smooth="yes"/>
      <point x="143" y="814"/>
      <point x="83" y="780"/>
      <point x="83" y="666" type="curve" smooth="yes"/>
      <point x="83" y="659" type="line"/>
      <point x="61" y="669"/>
      <point x="40" y="682"/>
      <point x="20" y="696" type="curve"/>
      <point x="20" y="624" type="line"/>
      <point x="38" y="613"/>
      <point x="59" y="603"/>
      <point x="83" y="594" type="curve"/>
      <point x="83" y="0" type="line"/>
      <point x="153" y="0" type="line"/>
      <point x="153" y="299" type="line"/>
      <point x="177" y="350"/>
      <point x="215" y="386"/>
      <point x="268" y="386" type="curve" smooth="yes"/>
      <point x="319" y="386"/>
      <point x="372" y="346"/>
      <point x="387" y="254" type="curve"/>
      <point x="393" y="262" type="line"/>
      <point x="378" y="281"/>
      <point x="351" y="290"/>
      <point x="324" y="290" type="curve" smooth="yes"/>
      <point x="258" y="290"/>
      <point x="202" y="223"/>
      <point x="202" y="136" type="curve" smooth="yes"/>
      <point x="202" y="44"/>
      <point x="253" y="-14"/>
    </contour>
    <contour>
      <point x="331" y="48" type="curve" smooth="yes"/>
      <point x="292" y="48"/>
      <point x="266" y="86"/>
      <point x="266" y="139" type="curve" smooth="yes"/>
      <point x="266" y="191"/>
      <point x="292" y="228"/>
      <point x="331" y="228" type="curve" smooth="yes"/>
      <point x="368" y="228"/>
      <point x="388" y="191"/>
      <point x="388" y="139" type="curve" smooth="yes"/>
      <point x="388" y="86"/>
      <point x="368" y="48"/>
    </contour>
    <contour>
      <point x="182" y="634" type="curve" smooth="yes"/>
      <point x="173" y="634"/>
      <point x="163" y="635"/>
      <point x="153" y="636" type="curve"/>
      <point x="153" y="667" type="line" smooth="yes"/>
      <point x="153" y="740"/>
      <point x="174" y="756"/>
      <point x="198" y="756" type="curve" smooth="yes"/>
      <point x="227" y="756"/>
      <point x="247" y="732"/>
      <point x="247" y="693" type="curve" smooth="yes"/>
      <point x="247" y="656"/>
      <point x="227" y="634"/>
    </contour>
  </outline>
</glyph>
<glyph name="u110DE" format="2">
  <advance width="449"/>
  <unicode hex="110DE"/>
  <outline>
    <contour>
      <point x="241" y="-14" type="curve" smooth="yes"/>
      <point x="337" y="-14"/>
      <point x="409" y="61"/>
      <point x="409" y="165" type="curve" smooth="yes"/>
      <point x="409" y="251"/>
      <point x="360" y="298"/>
      <point x="296" y="298" type="curve" smooth="yes"/>
      <point x="232" y="298"/>
      <point x="188" y="247"/>
      <point x="188" y="178" type="curve" smooth="yes"/>
      <point x="188" y="111"/>
      <point x="233" y="62"/>
      <point x="294" y="62" type="curve"/>
      <point x="286" y="55"/>
      <point x="268" y="52"/>
      <point x="247" y="52" type="curve" smooth="yes"/>
      <point x="183" y="52"/>
      <point x="114" y="93"/>
      <point x="114" y="210" type="curve" smooth="yes"/>
      <point x="114" y="324"/>
      <point x="170" y="428"/>
      <point x="261" y="428" type="curve" smooth="yes"/>
      <point x="274" y="428" type="line"/>
      <point x="274" y="488" type="line"/>
      <point x="261" y="488" type="line" smooth="yes"/>
      <point x="228" y="488"/>
      <point x="212" y="497"/>
      <point x="212" y="528" type="curve" smooth="yes"/>
      <point x="212" y="544"/>
      <point x="220" y="568"/>
      <point x="230" y="593" type="curve" smooth="yes"/>
      <point x="242" y="622"/>
      <point x="252" y="653"/>
      <point x="252" y="678" type="curve" smooth="yes"/>
      <point x="252" y="768"/>
      <point x="183" y="800"/>
      <point x="128" y="800" type="curve" smooth="yes"/>
      <point x="97" y="800" type="line"/>
      <point x="97" y="740" type="line"/>
      <point x="117" y="740" type="line" smooth="yes"/>
      <point x="161" y="740"/>
      <point x="179" y="717"/>
      <point x="179" y="673" type="curve" smooth="yes"/>
      <point x="179" y="640"/>
      <point x="167" y="611"/>
      <point x="156" y="585" type="curve" smooth="yes"/>
      <point x="146" y="562"/>
      <point x="138" y="540"/>
      <point x="138" y="520" type="curve" smooth="yes"/>
      <point x="138" y="486"/>
      <point x="149" y="464"/>
      <point x="188" y="439" type="curve"/>
      <point x="180" y="462" type="line"/>
      <point x="83" y="432"/>
      <point x="40" y="312"/>
      <point x="40" y="214" type="curve" smooth="yes"/>
      <point x="40" y="85"/>
      <point x="122" y="-14"/>
    </contour>
    <contour>
      <point x="296" y="116" type="curve" smooth="yes"/>
      <point x="266" y="116"/>
      <point x="246" y="142"/>
      <point x="246" y="178" type="curve" smooth="yes"/>
      <point x="246" y="214"/>
      <point x="266" y="240"/>
      <point x="296" y="240" type="curve" smooth="yes"/>
      <point x="325" y="240"/>
      <point x="345" y="214"/>
      <point x="345" y="178" type="curve" smooth="yes"/>
      <point x="345" y="142"/>
      <point x="325" y="116"/>
    </contour>
  </outline>
</glyph>
<glyph name="u110DF" format="2">
  <advance width="472"/>
  <unicode hex="110DF"/>
  <outline>
    <contour>
      <point x="208" y="-14" type="curve" smooth="yes"/>
      <point x="319" y="-14"/>
      <point x="392" y="85"/>
      <point x="392" y="232" type="curve" smooth="yes"/>
      <point x="392" y="502" type="line"/>
      <point x="344" y="502" type="line"/>
      <point x="336" y="481"/>
      <point x="328" y="465"/>
      <point x="296" y="465" type="curve" smooth="yes"/>
      <point x="288" y="465"/>
      <point x="263" y="471"/>
      <point x="263" y="514" type="curve" smooth="yes"/>
      <point x="263" y="556"/>
      <point x="270" y="610"/>
      <point x="360" y="750" type="curve"/>
      <point x="360" y="800" type="line"/>
      <point x="45" y="800" type="line"/>
      <point x="45" y="630" type="line"/>
      <point x="115" y="630" type="line"/>
      <point x="115" y="740" type="line"/>
      <point x="282" y="740" type="line"/>
      <point x="233" y="661"/>
      <point x="193" y="569"/>
      <point x="193" y="506" type="curve" smooth="yes"/>
      <point x="193" y="443"/>
      <point x="229" y="399"/>
      <point x="288" y="399" type="curve" smooth="yes"/>
      <point x="307" y="399"/>
      <point x="325" y="406"/>
      <point x="338" y="417" type="curve"/>
      <point x="322" y="432" type="line"/>
      <point x="322" y="233" type="line" smooth="yes"/>
      <point x="322" y="93"/>
      <point x="259" y="52"/>
      <point x="192" y="52" type="curve" smooth="yes"/>
      <point x="163" y="52"/>
      <point x="151" y="58"/>
      <point x="141" y="64" type="curve"/>
      <point x="135" y="62" type="line"/>
      <point x="141" y="61"/>
      <point x="150" y="60"/>
      <point x="158" y="60" type="curve" smooth="yes"/>
      <point x="212" y="60"/>
      <point x="261" y="105"/>
      <point x="261" y="178" type="curve" smooth="yes"/>
      <point x="261" y="247"/>
      <point x="217" y="298"/>
      <point x="153" y="298" type="curve" smooth="yes"/>
      <point x="89" y="298"/>
      <point x="40" y="247"/>
      <point x="40" y="165" type="curve" smooth="yes"/>
      <point x="40" y="64"/>
      <point x="100" y="-14"/>
    </contour>
    <contour>
      <point x="153" y="116" type="curve" smooth="yes"/>
      <point x="124" y="116"/>
      <point x="104" y="142"/>
      <point x="104" y="178" type="curve" smooth="yes"/>
      <point x="104" y="214"/>
      <point x="124" y="240"/>
      <point x="153" y="240" type="curve" smooth="yes"/>
      <point x="183" y="240"/>
      <point x="203" y="214"/>
      <point x="203" y="178" type="curve" smooth="yes"/>
      <point x="203" y="142"/>
      <point x="183" y="116"/>
    </contour>
  </outline>
</glyph>
<glyph name="u110E0" format="2">
  <advance width="485"/>
  <unicode hex="110E0"/>
  <outline>
    <contour>
      <point x="262" y="-14" type="curve" smooth="yes"/>
      <point x="359" y="-14"/>
      <point x="445" y="59"/>
      <point x="445" y="281" type="curve" smooth="yes"/>
      <point x="445" y="414"/>
      <point x="393" y="476"/>
      <point x="311" y="476" type="curve" smooth="yes"/>
      <point x="238" y="476"/>
      <point x="185" y="418"/>
      <point x="185" y="322" type="curve" smooth="yes"/>
      <point x="185" y="230"/>
      <point x="236" y="172"/>
      <point x="303" y="172" type="curve" smooth="yes"/>
      <point x="340" y="172"/>
      <point x="377" y="192"/>
      <point x="387" y="218" type="curve"/>
      <point x="374" y="218" type="line"/>
      <point x="370" y="106"/>
      <point x="323" y="52"/>
      <point x="260" y="52" type="curve" smooth="yes"/>
      <point x="183" y="52"/>
      <point x="150" y="110"/>
      <point x="150" y="250" type="curve" smooth="yes"/>
      <point x="150" y="733" type="line"/>
      <point x="166" y="730"/>
      <point x="184" y="728"/>
      <point x="199" y="728" type="curve" smooth="yes"/>
      <point x="215" y="728"/>
      <point x="233" y="729"/>
      <point x="251" y="733" type="curve"/>
      <point x="250" y="729"/>
      <point x="250" y="724"/>
      <point x="250" y="720" type="curve" smooth="yes"/>
      <point x="250" y="668"/>
      <point x="290" y="626"/>
      <point x="341" y="626" type="curve" smooth="yes"/>
      <point x="392" y="626"/>
      <point x="432" y="668"/>
      <point x="432" y="720" type="curve" smooth="yes"/>
      <point x="432" y="772"/>
      <point x="392" y="814"/>
      <point x="341" y="814" type="curve" smooth="yes"/>
      <point x="324" y="814"/>
      <point x="307" y="810"/>
      <point x="289" y="803" type="curve" smooth="yes"/>
      <point x="266" y="794"/>
      <point x="238" y="788"/>
      <point x="205" y="788" type="curve" smooth="yes"/>
      <point x="177" y="788"/>
      <point x="156" y="789"/>
      <point x="135" y="800" type="curve"/>
      <point x="80" y="800" type="line"/>
      <point x="80" y="249" type="line" smooth="yes"/>
      <point x="80" y="83"/>
      <point x="137" y="-14"/>
    </contour>
    <contour>
      <point x="310" y="234" type="curve" smooth="yes"/>
      <point x="273" y="234"/>
      <point x="253" y="272"/>
      <point x="253" y="325" type="curve" smooth="yes"/>
      <point x="253" y="377"/>
      <point x="273" y="414"/>
      <point x="310" y="414" type="curve" smooth="yes"/>
      <point x="349" y="414"/>
      <point x="375" y="377"/>
      <point x="375" y="325" type="curve" smooth="yes"/>
      <point x="375" y="272"/>
      <point x="349" y="234"/>
    </contour>
    <contour>
      <point x="340" y="678" type="curve" smooth="yes"/>
      <point x="317" y="678"/>
      <point x="303" y="695"/>
      <point x="303" y="720" type="curve" smooth="yes"/>
      <point x="303" y="745"/>
      <point x="317" y="762"/>
      <point x="340" y="762" type="curve" smooth="yes"/>
      <point x="365" y="762"/>
      <point x="379" y="745"/>
      <point x="379" y="720" type="curve" smooth="yes"/>
      <point x="379" y="695"/>
      <point x="364" y="678"/>
    </contour>
  </outline>
</glyph>
<glyph name="u110E1" format="2">
  <advance width="570"/>
  <unicode hex="110E1"/>
  <outline>
    <contour>
      <point x="208" y="0" type="line"/>
      <point x="278" y="0" type="line"/>
      <point x="278" y="455" type="line"/>
      <point x="289" y="459"/>
      <point x="304" y="462"/>
      <point x="320" y="462" type="curve" smooth="yes"/>
      <point x="355" y="462"/>
      <point x="389" y="452"/>
      <point x="414" y="421" type="curve"/>
      <point x="470" y="470" type="line"/>
      <point x="442" y="489"/>
      <point x="428" y="527"/>
      <point x="428" y="591" type="curve" smooth="yes"/>
      <point x="428" y="660" type="line"/>
      <point x="414" y="647" type="line"/>
      <point x="424" y="633"/>
      <point x="441" y="626"/>
      <point x="459" y="626" type="curve" smooth="yes"/>
      <point x="510" y="626"/>
      <point x="550" y="668"/>
      <point x="550" y="720" type="curve" smooth="yes"/>
      <point x="550" y="772"/>
      <point x="510" y="814"/>
      <point x="459" y="814" type="curve" smooth="yes"/>
      <point x="396" y="814"/>
      <point x="358" y="768"/>
      <point x="358" y="690" type="curve" smooth="yes"/>
      <point x="358" y="583" type="line" smooth="yes"/>
      <point x="358" y="536"/>
      <point x="362" y="519"/>
      <point x="373" y="498" type="curve"/>
      <point x="379" y="504" type="line"/>
      <point x="362" y="520"/>
      <point x="336" y="524"/>
      <point x="321" y="524" type="curve" smooth="yes"/>
      <point x="306" y="524"/>
      <point x="291" y="522"/>
      <point x="278" y="519" type="curve"/>
      <point x="278" y="800" type="line"/>
      <point x="208" y="800" type="line"/>
      <point x="61" y="600" type="line"/>
      <point x="138" y="600" type="line"/>
      <point x="214" y="712" type="line"/>
      <point x="217" y="710" type="line"/>
      <point x="209" y="689"/>
      <point x="208" y="661"/>
      <point x="208" y="629" type="curve" smooth="yes"/>
      <point x="208" y="491" type="line"/>
      <point x="157" y="457"/>
      <point x="90" y="421"/>
      <point x="33" y="421" type="curve" smooth="yes"/>
      <point x="20" y="421" type="line"/>
      <point x="20" y="361" type="line"/>
      <point x="33" y="361" type="line" smooth="yes"/>
      <point x="119" y="361"/>
      <point x="190" y="213"/>
      <point x="208" y="132" type="curve"/>
    </contour>
    <contour>
      <point x="212" y="264" type="line"/>
      <point x="201" y="309"/>
      <point x="144" y="381"/>
      <point x="107" y="393" type="curve"/>
      <point x="107" y="384" type="line"/>
      <point x="148" y="389"/>
      <point x="193" y="409"/>
      <point x="212" y="428" type="curve"/>
      <point x="213" y="427" type="line"/>
      <point x="210" y="413"/>
      <point x="208" y="401"/>
      <point x="208" y="381" type="curve" smooth="yes"/>
      <point x="208" y="333" type="line" smooth="yes"/>
      <point x="208" y="298"/>
      <point x="210" y="284"/>
      <point x="214" y="265" type="curve"/>
    </contour>
    <contour>
      <point x="458" y="678" type="curve" smooth="yes"/>
      <point x="435" y="678"/>
      <point x="421" y="695"/>
      <point x="421" y="720" type="curve" smooth="yes"/>
      <point x="421" y="745"/>
      <point x="435" y="762"/>
      <point x="458" y="762" type="curve" smooth="yes"/>
      <point x="483" y="762"/>
      <point x="497" y="745"/>
      <point x="497" y="720" type="curve" smooth="yes"/>
      <point x="497" y="695"/>
      <point x="482" y="678"/>
    </contour>
  </outline>
</glyph>
<glyph name="u110E2" format="2">
  <advance width="618"/>
  <unicode hex="110E2"/>
  <outline>
    <contour>
      <point x="172" y="-14" type="curve" smooth="yes"/>
      <point x="242" y="-14"/>
      <point x="293" y="54"/>
      <point x="293" y="150" type="curve" smooth="yes"/>
      <point x="293" y="248"/>
      <point x="235" y="344"/>
      <point x="136" y="398" type="curve"/>
      <point x="120" y="335" type="line"/>
      <point x="189" y="299"/>
      <point x="219" y="219"/>
      <point x="219" y="147" type="curve" smooth="yes"/>
      <point x="219" y="106"/>
      <point x="208" y="52"/>
      <point x="172" y="52" type="curve" smooth="yes"/>
      <point x="137" y="52"/>
      <point x="114" y="101"/>
      <point x="114" y="187" type="curve" smooth="yes"/>
      <point x="114" y="344"/>
      <point x="217" y="590"/>
      <point x="319" y="735" type="curve"/>
      <point x="299" y="734" type="line"/>
      <point x="397" y="596"/>
      <point x="504" y="350"/>
      <point x="504" y="187" type="curve" smooth="yes"/>
      <point x="504" y="101"/>
      <point x="481" y="52"/>
      <point x="446" y="52" type="curve" smooth="yes"/>
      <point x="410" y="52"/>
      <point x="399" y="106"/>
      <point x="399" y="147" type="curve" smooth="yes"/>
      <point x="399" y="219"/>
      <point x="429" y="299"/>
      <point x="498" y="335" type="curve"/>
      <point x="482" y="398" type="line"/>
      <point x="383" y="344"/>
      <point x="325" y="248"/>
      <point x="325" y="150" type="curve" smooth="yes"/>
      <point x="325" y="54"/>
      <point x="376" y="-14"/>
      <point x="446" y="-14" type="curve" smooth="yes"/>
      <point x="529" y="-14"/>
      <point x="578" y="52"/>
      <point x="578" y="185" type="curve" smooth="yes"/>
      <point x="578" y="392"/>
      <point x="446" y="648"/>
      <point x="319" y="814" type="curve"/>
      <point x="299" y="814" type="line"/>
      <point x="172" y="648"/>
      <point x="40" y="392"/>
      <point x="40" y="185" type="curve" smooth="yes"/>
      <point x="40" y="52"/>
      <point x="89" y="-14"/>
    </contour>
  </outline>
</glyph>
<glyph name="u110E3" format="2">
  <advance width="448"/>
  <unicode hex="110E3"/>
  <outline>
    <contour>
      <point x="239" y="-14" type="curve" smooth="yes"/>
      <point x="320" y="-14"/>
      <point x="371" y="52"/>
      <point x="371" y="148" type="curve" smooth="yes"/>
      <point x="371" y="260"/>
      <point x="297" y="376"/>
      <point x="171" y="421" type="curve"/>
      <point x="179" y="402" type="line"/>
      <point x="218" y="434"/>
      <point x="248" y="496"/>
      <point x="272" y="586" type="curve" smooth="yes"/>
      <point x="299" y="689"/>
      <point x="325" y="755"/>
      <point x="365" y="755" type="curve" smooth="yes"/>
      <point x="377" y="755"/>
      <point x="386" y="751"/>
      <point x="393" y="745" type="curve"/>
      <point x="428" y="792" type="line"/>
      <point x="413" y="806"/>
      <point x="392" y="814"/>
      <point x="366" y="814" type="curve" smooth="yes"/>
      <point x="290" y="814"/>
      <point x="253" y="727"/>
      <point x="223" y="618" type="curve" smooth="yes"/>
      <point x="201" y="539"/>
      <point x="184" y="489"/>
      <point x="164" y="474" type="curve"/>
      <point x="173" y="458" type="line"/>
      <point x="173" y="800" type="line"/>
      <point x="103" y="800" type="line"/>
      <point x="103" y="439" type="line"/>
      <point x="20" y="439" type="line"/>
      <point x="20" y="379" type="line"/>
      <point x="61" y="379" type="line" smooth="yes"/>
      <point x="75" y="379"/>
      <point x="89" y="378"/>
      <point x="103" y="375" type="curve"/>
      <point x="103" y="153" type="line" smooth="yes"/>
      <point x="103" y="35"/>
      <point x="164" y="-14"/>
    </contour>
    <contour>
      <point x="239" y="52" type="curve" smooth="yes"/>
      <point x="200" y="52"/>
      <point x="173" y="91"/>
      <point x="173" y="166" type="curve" smooth="yes"/>
      <point x="173" y="377" type="line"/>
      <point x="155" y="358" type="line"/>
      <point x="241" y="317"/>
      <point x="297" y="222"/>
      <point x="297" y="145" type="curve" smooth="yes"/>
      <point x="297" y="84"/>
      <point x="275" y="52"/>
    </contour>
  </outline>
</glyph>
<glyph name="u110E4" format="2">
  <advance width="476"/>
  <unicode hex="110E4"/>
  <outline>
    <contour>
      <point x="268" y="-14" type="curve" smooth="yes"/>
      <point x="357" y="-14"/>
      <point x="436" y="45"/>
      <point x="436" y="165" type="curve" smooth="yes"/>
      <point x="436" y="251"/>
      <point x="387" y="298"/>
      <point x="323" y="298" type="curve" smooth="yes"/>
      <point x="259" y="298"/>
      <point x="215" y="247"/>
      <point x="215" y="178" type="curve" smooth="yes"/>
      <point x="215" y="105"/>
      <point x="267" y="62"/>
      <point x="324" y="62" type="curve"/>
      <point x="315" y="56"/>
      <point x="302" y="52"/>
      <point x="274" y="52" type="curve" smooth="yes"/>
      <point x="218" y="52"/>
      <point x="141" y="92"/>
      <point x="141" y="197" type="curve" smooth="yes"/>
      <point x="141" y="304"/>
      <point x="223" y="384"/>
      <point x="329" y="463" type="curve"/>
      <point x="297" y="514" type="line"/>
      <point x="270" y="493"/>
      <point x="239" y="471"/>
      <point x="217" y="471" type="curve" smooth="yes"/>
      <point x="195" y="471"/>
      <point x="176" y="489"/>
      <point x="176" y="517" type="curve" smooth="yes"/>
      <point x="176" y="567"/>
      <point x="238" y="651"/>
      <point x="349" y="751" type="curve"/>
      <point x="349" y="800" type="line"/>
      <point x="40" y="800" type="line"/>
      <point x="40" y="630" type="line"/>
      <point x="110" y="630" type="line"/>
      <point x="110" y="740" type="line"/>
      <point x="283" y="740" type="line"/>
      <point x="272" y="757" type="line"/>
      <point x="174" y="666"/>
      <point x="102" y="570"/>
      <point x="102" y="503" type="curve" smooth="yes"/>
      <point x="102" y="455"/>
      <point x="131" y="414"/>
      <point x="198" y="414" type="curve"/>
      <point x="197" y="426" type="line"/>
      <point x="124" y="371"/>
      <point x="67" y="285"/>
      <point x="67" y="192" type="curve" smooth="yes"/>
      <point x="67" y="69"/>
      <point x="158" y="-14"/>
    </contour>
    <contour>
      <point x="323" y="116" type="curve" smooth="yes"/>
      <point x="293" y="116"/>
      <point x="273" y="142"/>
      <point x="273" y="178" type="curve" smooth="yes"/>
      <point x="273" y="214"/>
      <point x="293" y="240"/>
      <point x="323" y="240" type="curve" smooth="yes"/>
      <point x="352" y="240"/>
      <point x="372" y="214"/>
      <point x="372" y="178" type="curve" smooth="yes"/>
      <point x="372" y="142"/>
      <point x="352" y="116"/>
    </contour>
  </outline>
</glyph>
<glyph name="u110E5" format="2">
  <advance width="556"/>
  <unicode hex="110E5"/>
  <outline>
    <contour>
      <point x="306" y="-14" type="curve" smooth="yes"/>
      <point x="441" y="-14"/>
      <point x="476" y="84"/>
      <point x="476" y="249" type="curve" smooth="yes"/>
      <point x="476" y="800" type="line"/>
      <point x="406" y="800" type="line"/>
      <point x="406" y="250" type="line" smooth="yes"/>
      <point x="406" y="110"/>
      <point x="386" y="52"/>
      <point x="309" y="52" type="curve" smooth="yes"/>
      <point x="230" y="52"/>
      <point x="208" y="110"/>
      <point x="208" y="250" type="curve" smooth="yes"/>
      <point x="208" y="800" type="line"/>
      <point x="10" y="800" type="line"/>
      <point x="10" y="740" type="line"/>
      <point x="138" y="740" type="line"/>
      <point x="138" y="249" type="line" smooth="yes"/>
      <point x="138" y="83"/>
      <point x="173" y="-14"/>
    </contour>
  </outline>
</glyph>
<glyph name="u110E6" format="2">
  <advance width="454"/>
  <unicode hex="110E6"/>
  <outline>
    <contour>
      <point x="44" y="0" type="line"/>
      <point x="400" y="0" type="line"/>
      <point x="400" y="60" type="line"/>
      <point x="126" y="60" type="line"/>
      <point x="321" y="363" type="line" smooth="yes"/>
      <point x="372" y="442"/>
      <point x="414" y="534"/>
      <point x="414" y="608" type="curve" smooth="yes"/>
      <point x="414" y="741"/>
      <point x="335" y="814"/>
      <point x="222" y="814" type="curve" smooth="yes"/>
      <point x="112" y="814"/>
      <point x="40" y="742"/>
      <point x="40" y="635" type="curve" smooth="yes"/>
      <point x="40" y="548"/>
      <point x="89" y="502"/>
      <point x="153" y="502" type="curve" smooth="yes"/>
      <point x="217" y="502"/>
      <point x="261" y="553"/>
      <point x="261" y="622" type="curve" smooth="yes"/>
      <point x="261" y="697"/>
      <point x="215" y="737"/>
      <point x="151" y="737" type="curve"/>
      <point x="161" y="744"/>
      <point x="182" y="752"/>
      <point x="213" y="752" type="curve" smooth="yes"/>
      <point x="259" y="752"/>
      <point x="340" y="732"/>
      <point x="340" y="609" type="curve" smooth="yes"/>
      <point x="340" y="526"/>
      <point x="306" y="467"/>
      <point x="253" y="382" type="curve" smooth="yes"/>
      <point x="44" y="49" type="line"/>
    </contour>
    <contour>
      <point x="153" y="560" type="curve" smooth="yes"/>
      <point x="124" y="560"/>
      <point x="104" y="586"/>
      <point x="104" y="622" type="curve" smooth="yes"/>
      <point x="104" y="658"/>
      <point x="124" y="684"/>
      <point x="153" y="684" type="curve" smooth="yes"/>
      <point x="183" y="684"/>
      <point x="203" y="658"/>
      <point x="203" y="622" type="curve" smooth="yes"/>
      <point x="203" y="586"/>
      <point x="183" y="560"/>
    </contour>
  </outline>
</glyph>
<glyph name="u110E7" format="2">
  <advance width="497"/>
  <unicode hex="110E7"/>
  <outline>
    <contour>
      <point x="80" y="0" type="line"/>
      <point x="150" y="0" type="line"/>
      <point x="150" y="65" type="line" smooth="yes"/>
      <point x="150" y="110"/>
      <point x="184" y="135"/>
      <point x="218" y="135" type="curve" smooth="yes"/>
      <point x="248" y="135"/>
      <point x="273" y="125"/>
      <point x="278" y="100" type="curve"/>
      <point x="348" y="100" type="line"/>
      <point x="329" y="203"/>
      <point x="314" y="327"/>
      <point x="314" y="436" type="curve" smooth="yes"/>
      <point x="314" y="541"/>
      <point x="318" y="609"/>
      <point x="329" y="659" type="curve"/>
      <point x="321" y="655" type="line"/>
      <point x="337" y="635"/>
      <point x="359" y="626"/>
      <point x="386" y="626" type="curve" smooth="yes"/>
      <point x="437" y="626"/>
      <point x="477" y="668"/>
      <point x="477" y="720" type="curve" smooth="yes"/>
      <point x="477" y="772"/>
      <point x="437" y="814"/>
      <point x="386" y="814" type="curve" smooth="yes"/>
      <point x="306" y="814"/>
      <point x="244" y="734"/>
      <point x="244" y="436" type="curve" smooth="yes"/>
      <point x="244" y="320"/>
      <point x="256" y="233"/>
      <point x="267" y="177" type="curve"/>
      <point x="274" y="178" type="line"/>
      <point x="260" y="195"/>
      <point x="240" y="201"/>
      <point x="219" y="201" type="curve" smooth="yes"/>
      <point x="199" y="201"/>
      <point x="174" y="195"/>
      <point x="150" y="178" type="curve"/>
      <point x="150" y="800" type="line"/>
      <point x="80" y="800" type="line"/>
    </contour>
    <contour>
      <point x="385" y="678" type="curve" smooth="yes"/>
      <point x="362" y="678"/>
      <point x="348" y="695"/>
      <point x="348" y="720" type="curve" smooth="yes"/>
      <point x="348" y="745"/>
      <point x="362" y="762"/>
      <point x="385" y="762" type="curve" smooth="yes"/>
      <point x="410" y="762"/>
      <point x="424" y="745"/>
      <point x="424" y="720" type="curve" smooth="yes"/>
      <point x="424" y="695"/>
      <point x="409" y="678"/>
    </contour>
  </outline>
</glyph>
<glyph name="u110E8" format="2">
  <advance width="380"/>
  <unicode hex="110E8"/>
  <outline>
    <contour>
      <point x="242" y="-14" type="curve" smooth="yes"/>
      <point x="274" y="-14"/>
      <point x="302" y="-6"/>
      <point x="326" y="11" type="curve"/>
      <point x="292" y="70" type="line"/>
      <point x="280" y="59"/>
      <point x="266" y="52"/>
      <point x="247" y="52" type="curve" smooth="yes"/>
      <point x="171" y="52"/>
      <point x="150" y="118"/>
      <point x="150" y="258" type="curve" smooth="yes"/>
      <point x="150" y="557" type="line"/>
      <point x="136" y="550" type="line"/>
      <point x="148" y="527"/>
      <point x="183" y="510"/>
      <point x="214" y="510" type="curve" smooth="yes"/>
      <point x="289" y="510"/>
      <point x="340" y="573"/>
      <point x="340" y="660" type="curve" smooth="yes"/>
      <point x="340" y="747"/>
      <point x="294" y="814"/>
      <point x="214" y="814" type="curve" smooth="yes"/>
      <point x="142" y="814"/>
      <point x="80" y="761"/>
      <point x="80" y="635" type="curve" smooth="yes"/>
      <point x="80" y="249" type="line" smooth="yes"/>
      <point x="80" y="83"/>
      <point x="117" y="-14"/>
    </contour>
    <contour>
      <point x="215" y="572" type="curve" smooth="yes"/>
      <point x="176" y="572"/>
      <point x="150" y="610"/>
      <point x="150" y="663" type="curve" smooth="yes"/>
      <point x="150" y="715"/>
      <point x="176" y="752"/>
      <point x="215" y="752" type="curve" smooth="yes"/>
      <point x="252" y="752"/>
      <point x="272" y="715"/>
      <point x="272" y="663" type="curve" smooth="yes"/>
      <point x="272" y="610"/>
      <point x="252" y="572"/>
    </contour>
  </outline>
</glyph>
<glyph name="u110F0" format="2">
  <advance width="498"/>
  <unicode hex="110F0"/>
  <outline>
    <contour>
      <point x="248" y="-14" type="curve" smooth="yes"/>
      <point x="383" y="-14"/>
      <point x="418" y="84"/>
      <point x="418" y="249" type="curve" smooth="yes"/>
      <point x="418" y="551" type="line" smooth="yes"/>
      <point x="418" y="716"/>
      <point x="383" y="814"/>
      <point x="248" y="814" type="curve" smooth="yes"/>
      <point x="115" y="814"/>
      <point x="80" y="717"/>
      <point x="80" y="551" type="curve" smooth="yes"/>
      <point x="80" y="249" type="line" smooth="yes"/>
      <point x="80" y="83"/>
      <point x="115" y="-14"/>
    </contour>
    <contour>
      <point x="251" y="52" type="curve" smooth="yes"/>
      <point x="172" y="52"/>
      <point x="150" y="110"/>
      <point x="150" y="250" type="curve" smooth="yes"/>
      <point x="150" y="550" type="line" smooth="yes"/>
      <point x="150" y="690"/>
      <point x="172" y="748"/>
      <point x="251" y="748" type="curve" smooth="yes"/>
      <point x="328" y="748"/>
      <point x="348" y="690"/>
      <point x="348" y="550" type="curve" smooth="yes"/>
      <point x="348" y="250" type="line" smooth="yes"/>
      <point x="348" y="110"/>
      <point x="328" y="52"/>
    </contour>
  </outline>
</glyph>
<glyph name="u110F1" format="2">
  <advance width="366"/>
  <unicode hex="110F1"/>
  <outline>
    <contour>
      <point x="103" y="0" type="line"/>
      <point x="173" y="0" type="line"/>
      <point x="173" y="667" type="line" smooth="yes"/>
      <point x="173" y="740"/>
      <point x="194" y="756"/>
      <point x="221" y="756" type="curve" smooth="yes"/>
      <point x="247" y="756"/>
      <point x="267" y="734"/>
      <point x="267" y="693" type="curve" smooth="yes"/>
      <point x="267" y="629"/>
      <point x="195" y="596"/>
      <point x="40" y="589" type="curve"/>
      <point x="40" y="529" type="line"/>
      <point x="229" y="534"/>
      <point x="326" y="588"/>
      <point x="326" y="693" type="curve" smooth="yes"/>
      <point x="326" y="765"/>
      <point x="278" y="814"/>
      <point x="218" y="814" type="curve" smooth="yes"/>
      <point x="163" y="814"/>
      <point x="103" y="780"/>
      <point x="103" y="666" type="curve" smooth="yes"/>
    </contour>
  </outline>
</glyph>
<glyph name="u110F2" format="2">
  <advance width="366"/>
  <unicode hex="110F2"/>
  <outline>
    <contour>
      <point x="193" y="0" type="line"/>
      <point x="263" y="0" type="line"/>
      <point x="263" y="666" type="line" smooth="yes"/>
      <point x="263" y="780"/>
      <point x="203" y="814"/>
      <point x="148" y="814" type="curve" smooth="yes"/>
      <point x="88" y="814"/>
      <point x="40" y="765"/>
      <point x="40" y="693" type="curve" smooth="yes"/>
      <point x="40" y="588"/>
      <point x="137" y="534"/>
      <point x="326" y="529" type="curve"/>
      <point x="326" y="589" type="line"/>
      <point x="171" y="596"/>
      <point x="99" y="629"/>
      <point x="99" y="693" type="curve" smooth="yes"/>
      <point x="99" y="734"/>
      <point x="119" y="756"/>
      <point x="145" y="756" type="curve" smooth="yes"/>
      <point x="172" y="756"/>
      <point x="193" y="740"/>
      <point x="193" y="667" type="curve" smooth="yes"/>
    </contour>
  </outline>
</glyph>
<glyph name="u110F3" format="2">
  <advance width="347"/>
  <unicode hex="110F3"/>
  <outline>
    <contour>
      <point x="148" y="-14" type="curve" smooth="yes"/>
      <point x="244" y="-14"/>
      <point x="267" y="71"/>
      <point x="267" y="146" type="curve" smooth="yes"/>
      <point x="267" y="654" type="line" smooth="yes"/>
      <point x="267" y="729"/>
      <point x="244" y="814"/>
      <point x="148" y="814" type="curve" smooth="yes"/>
      <point x="84" y="814"/>
      <point x="40" y="763"/>
      <point x="40" y="694" type="curve" smooth="yes"/>
      <point x="40" y="613"/>
      <point x="94" y="574"/>
      <point x="143" y="574" type="curve" smooth="yes"/>
      <point x="171" y="574"/>
      <point x="197" y="588"/>
      <point x="210" y="610" type="curve"/>
      <point x="204" y="614" type="line"/>
      <point x="200" y="593"/>
      <point x="197" y="561"/>
      <point x="197" y="510" type="curve" smooth="yes"/>
      <point x="197" y="290" type="line" smooth="yes"/>
      <point x="197" y="239"/>
      <point x="200" y="207"/>
      <point x="204" y="186" type="curve"/>
      <point x="210" y="190" type="line"/>
      <point x="197" y="212"/>
      <point x="171" y="226"/>
      <point x="143" y="226" type="curve" smooth="yes"/>
      <point x="84" y="226"/>
      <point x="40" y="175"/>
      <point x="40" y="106" type="curve" smooth="yes"/>
      <point x="40" y="37"/>
      <point x="84" y="-14"/>
    </contour>
    <contour>
      <point x="148" y="44" type="curve" smooth="yes"/>
      <point x="118" y="44"/>
      <point x="98" y="70"/>
      <point x="98" y="106" type="curve" smooth="yes"/>
      <point x="98" y="142"/>
      <point x="118" y="168"/>
      <point x="148" y="168" type="curve" smooth="yes"/>
      <point x="177" y="168"/>
      <point x="197" y="142"/>
      <point x="197" y="106" type="curve" smooth="yes"/>
      <point x="197" y="70"/>
      <point x="177" y="44"/>
    </contour>
    <contour>
      <point x="148" y="632" type="curve" smooth="yes"/>
      <point x="118" y="632"/>
      <point x="98" y="658"/>
      <point x="98" y="694" type="curve" smooth="yes"/>
      <point x="98" y="730"/>
      <point x="118" y="756"/>
      <point x="148" y="756" type="curve" smooth="yes"/>
      <point x="177" y="756"/>
      <point x="197" y="730"/>
      <point x="197" y="694" type="curve" smooth="yes"/>
      <point x="197" y="658"/>
      <point x="177" y="632"/>
    </contour>
  </outline>
</glyph>
<glyph name="u110F4" format="2">
  <advance width="393"/>
  <unicode hex="110F4"/>
  <outline>
    <contour>
      <point x="194" y="-14" type="curve" smooth="yes"/>
      <point x="290" y="-14"/>
      <point x="313" y="71"/>
      <point x="313" y="146" type="curve" smooth="yes"/>
      <point x="313" y="800" type="line"/>
      <point x="243" y="800" type="line"/>
      <point x="243" y="320" type="line" smooth="yes"/>
      <point x="243" y="259"/>
      <point x="247" y="217"/>
      <point x="254" y="186" type="curve"/>
      <point x="260" y="194" type="line"/>
      <point x="243" y="216"/>
      <point x="216" y="226"/>
      <point x="190" y="226" type="curve" smooth="yes"/>
      <point x="135" y="226"/>
      <point x="86" y="179"/>
      <point x="86" y="115" type="curve" smooth="yes"/>
      <point x="86" y="84"/>
      <point x="94" y="61"/>
      <point x="107" y="45" type="curve"/>
      <point x="109" y="57" type="line"/>
      <point x="76" y="68"/>
      <point x="41" y="85"/>
      <point x="10" y="108" type="curve"/>
      <point x="10" y="36" type="line"/>
      <point x="71" y="3"/>
      <point x="129" y="-14"/>
    </contour>
    <contour>
      <point x="194" y="44" type="curve" smooth="yes"/>
      <point x="164" y="44"/>
      <point x="144" y="70"/>
      <point x="144" y="106" type="curve" smooth="yes"/>
      <point x="144" y="142"/>
      <point x="164" y="168"/>
      <point x="194" y="168" type="curve" smooth="yes"/>
      <point x="223" y="168"/>
      <point x="243" y="142"/>
      <point x="243" y="106" type="curve" smooth="yes"/>
      <point x="243" y="70"/>
      <point x="223" y="44"/>
    </contour>
  </outline>
</glyph>
<glyph name="u110F5" format="2">
  <advance width="340"/>
  <unicode hex="110F5"/>
  <outline>
    <contour>
      <point x="80" y="0" type="line"/>
      <point x="153" y="0" type="line"/>
      <point x="330" y="221" type="line"/>
      <point x="330" y="266" type="line"/>
      <point x="150" y="266" type="line"/>
      <point x="150" y="800" type="line"/>
      <point x="80" y="800" type="line"/>
    </contour>
    <contour>
      <point x="150" y="88" type="line"/>
      <point x="150" y="206" type="line"/>
      <point x="243" y="206" type="line"/>
    </contour>
  </outline>
</glyph>
<glyph name="u110F6" format="2">
  <advance width="342"/>
  <unicode hex="110F6"/>
  <outline>
    <contour>
      <point x="36" y="-29" type="line"/>
      <point x="68" y="-26"/>
      <point x="113" y="-20"/>
      <point x="149" y="-6" type="curve"/>
      <point x="163" y="-11"/>
      <point x="178" y="-14"/>
      <point x="194" y="-14" type="curve" smooth="yes"/>
      <point x="258" y="-14"/>
      <point x="302" y="37"/>
      <point x="302" y="106" type="curve" smooth="yes"/>
      <point x="302" y="175"/>
      <point x="257" y="226"/>
      <point x="198" y="226" type="curve" smooth="yes"/>
      <point x="176" y="226"/>
      <point x="158" y="218"/>
      <point x="145" y="209" type="curve"/>
      <point x="150" y="207" type="line"/>
      <point x="157" y="217"/>
      <point x="164" y="226"/>
      <point x="174" y="238" type="curve" smooth="yes"/>
      <point x="191" y="259"/>
      <point x="206" y="288"/>
      <point x="206" y="337" type="curve" smooth="yes"/>
      <point x="206" y="800" type="line"/>
      <point x="136" y="800" type="line"/>
      <point x="136" y="329" type="line" smooth="yes"/>
      <point x="136" y="288"/>
      <point x="123" y="259"/>
      <point x="106" y="229" type="curve" smooth="yes"/>
      <point x="88" y="197"/>
      <point x="72" y="162"/>
      <point x="72" y="106" type="curve" smooth="yes"/>
      <point x="72" y="68"/>
      <point x="87" y="36"/>
      <point x="107" y="26" type="curve"/>
      <point x="103" y="43" type="line"/>
      <point x="76" y="36"/>
      <point x="49" y="31"/>
      <point x="10" y="29" type="curve"/>
    </contour>
    <contour>
      <point x="194" y="44" type="curve" smooth="yes"/>
      <point x="164" y="44"/>
      <point x="144" y="70"/>
      <point x="144" y="106" type="curve" smooth="yes"/>
      <point x="144" y="142"/>
      <point x="164" y="168"/>
      <point x="194" y="168" type="curve" smooth="yes"/>
      <point x="223" y="168"/>
      <point x="243" y="142"/>
      <point x="243" y="106" type="curve" smooth="yes"/>
      <point x="243" y="70"/>
      <point x="223" y="44"/>
    </contour>
  </outline>
</glyph>
<glyph name="u110F7" format="2">
  <advance width="347"/>
  <unicode hex="110F7"/>
  <outline>
    <contour>
      <point x="199" y="-14" type="curve" smooth="yes"/>
      <point x="263" y="-14"/>
      <point x="307" y="37"/>
      <point x="307" y="106" type="curve" smooth="yes"/>
      <point x="307" y="175"/>
      <point x="265" y="226"/>
      <point x="201" y="226" type="curve" smooth="yes"/>
      <point x="176" y="226"/>
      <point x="151" y="214"/>
      <point x="133" y="195" type="curve"/>
      <point x="141" y="186" type="line"/>
      <point x="148" y="216"/>
      <point x="150" y="257"/>
      <point x="150" y="307" type="curve" smooth="yes"/>
      <point x="150" y="526" type="line" smooth="yes"/>
      <point x="150" y="589"/>
      <point x="148" y="644"/>
      <point x="140" y="674" type="curve"/>
      <point x="137" y="672" type="line"/>
      <point x="147" y="652"/>
      <point x="156" y="637"/>
      <point x="172" y="614" type="curve" smooth="yes"/>
      <point x="205" y="567" type="line"/>
      <point x="258" y="606" type="line"/>
      <point x="109" y="814" type="line"/>
      <point x="56" y="778" type="line"/>
      <point x="80" y="744" type="line"/>
      <point x="80" y="146" type="line" smooth="yes"/>
      <point x="80" y="71"/>
      <point x="103" y="-14"/>
    </contour>
    <contour>
      <point x="199" y="44" type="curve" smooth="yes"/>
      <point x="170" y="44"/>
      <point x="150" y="70"/>
      <point x="150" y="106" type="curve" smooth="yes"/>
      <point x="150" y="142"/>
      <point x="170" y="168"/>
      <point x="199" y="168" type="curve" smooth="yes"/>
      <point x="229" y="168"/>
      <point x="249" y="142"/>
      <point x="249" y="106" type="curve" smooth="yes"/>
      <point x="249" y="70"/>
      <point x="229" y="44"/>
    </contour>
  </outline>
</glyph>
<glyph name="u110F8" format="2">
  <advance width="344"/>
  <unicode hex="110F8"/>
  <outline>
    <contour>
      <point x="80" y="0" type="line"/>
      <point x="150" y="0" type="line"/>
      <point x="150" y="800" type="line"/>
      <point x="80" y="800" type="line"/>
    </contour>
    <contour>
      <point x="80" y="0" type="line"/>
      <point x="334" y="0" type="line"/>
      <point x="334" y="60" type="line"/>
      <point x="80" y="60" type="line"/>
    </contour>
  </outline>
</glyph>
<glyph name="u110F9" format="2">
  <advance width="357"/>
  <unicode hex="110F9"/>
  <outline>
    <contour>
      <point x="30" y="-14" type="line"/>
      <point x="174" y="21"/>
      <point x="317" y="86"/>
      <point x="317" y="210" type="curve" smooth="yes"/>
      <point x="317" y="282"/>
      <point x="269" y="336"/>
      <point x="205" y="336" type="curve" smooth="yes"/>
      <point x="176" y="336"/>
      <point x="149" y="322"/>
      <point x="134" y="302" type="curve"/>
      <point x="150" y="295" type="line"/>
      <point x="150" y="800" type="line"/>
      <point x="80" y="800" type="line"/>
      <point x="80" y="64" type="line"/>
      <point x="64" y="58"/>
      <point x="48" y="53"/>
      <point x="30" y="48" type="curve"/>
    </contour>
    <contour>
      <point x="150" y="94" type="curve"/>
      <point x="150" y="225" type="line"/>
      <point x="152" y="254"/>
      <point x="172" y="270"/>
      <point x="195" y="270" type="curve" smooth="yes"/>
      <point x="224" y="270"/>
      <point x="244" y="246"/>
      <point x="244" y="207" type="curve" smooth="yes"/>
      <point x="244" y="165"/>
      <point x="211" y="127"/>
    </contour>
  </outline>
</glyph>
